<?xml version="1.0" encoding="iso-8859-1"?>
<!-- Generator: Adobe Illustrator 19.0.0, SVG Export Plug-In . SVG Version: 6.00 Build 0)  -->
<svg version="1.1" id="Capa_1" xmlns="http://www.w3.org/2000/svg" xmlns:xlink="http://www.w3.org/1999/xlink" x="0px" y="0px"
	 viewBox="0 0 512 512" style="enable-background:new 0 0 512 512;" xml:space="preserve">
<circle style="fill:#FF9A00;" cx="256" cy="256" r="256"/>
<path style="fill:#E67500;" d="M512,256c0-1.166-0.029-2.326-0.044-3.489l-93.663-93.663
	c-14.103-15.484-34.425-25.203-57.019-25.203c-3.517,0-6.975,0.251-10.366,0.709l-34.439-34.451
	c-15.375-15.667-36.781-25.39-60.468-25.39c-39.201,0-72.171,26.619-81.86,62.762c-7.385-2.351-15.249-3.63-23.413-3.63
	c-42.584,0-77.106,34.521-77.106,77.106c0,20.706,8.162,39.504,21.444,53.355l64.564,64.497v84.954l98.416,98.416
	C398.486,510.873,512,396.701,512,256z"/>
<path style="fill:#FFFFFF;" d="M361.273,133.645c-8.164,0-16.028,1.279-23.413,3.63c-9.69-36.144-42.659-62.762-81.86-62.762
	s-72.171,26.619-81.86,62.762c-7.385-2.352-15.249-3.63-23.413-3.63c-42.584,0-77.106,34.521-77.106,77.106
	s34.521,77.106,77.106,77.106c3.011,0,5.981-0.178,8.902-0.514v102.208h192.743V287.344c2.921,0.336,5.891,0.514,8.902,0.514
	c42.584,0,77.106-34.522,77.106-77.106S403.858,133.645,361.273,133.645z"/>
<path style="fill:#FFF5CB;" d="M438.376,210.753c0,42.58-34.52,77.1-77.1,77.1c-3.01,0-5.98-0.17-8.9-0.51v102.21h-96.38V74.513
	c39.2,0,72.17,26.62,81.86,62.76c7.39-2.35,15.25-3.63,23.42-3.63C403.857,133.644,438.376,168.163,438.376,210.753z"/>
<rect x="159.63" y="369.56" style="fill:#B6E1F7;" width="192.74" height="44"/>
<rect x="256" y="369.55" style="fill:#7FC8F1;" width="96.38" height="44"/>
<g>
</g>
<g>
</g>
<g>
</g>
<g>
</g>
<g>
</g>
<g>
</g>
<g>
</g>
<g>
</g>
<g>
</g>
<g>
</g>
<g>
</g>
<g>
</g>
<g>
</g>
<g>
</g>
<g>
</g>
</svg>
